<?xml version="1.0" encoding="utf-8"?>
<!-- Generator: Adobe Illustrator 21.0.2, SVG Export Plug-In . SVG Version: 6.00 Build 0)  -->
<svg version="1.1" id="Layer_1" xmlns="http://www.w3.org/2000/svg" xmlns:xlink="http://www.w3.org/1999/xlink" x="0px" y="0px"
	 width="302px" height="107.8px" viewBox="0 0 302 107.8" style="enable-background:new 0 0 302 107.8;" xml:space="preserve">
<g>
	<path style="fill:#840000;stroke:#000000;stroke-width:3;stroke-miterlimit:10;" d="M78.7,106.3c-1.5,0-2.9-0.7-4.2-2
		c-1-1-1.9-2.2-2.7-3.6c-0.7-1.3-1.4-2.6-1.9-4c-0.5-1.3-1-3-1.4-4.9c-0.4-1.8-0.8-3.4-1-4.8c-0.3-1.4-0.5-3.2-0.7-5.5
		c-0.2-2.2-0.3-3.8-0.4-5c-0.1-1.2-0.2-3-0.2-5.3c0-2.1-0.1-3.8-0.1-4.7v-4.9c-3.4,1.2-7.2,2.1-11.3,2.5l-0.1,0h-0.1
		c-2.3,0-5-0.6-8.4-1.7c-1.7-0.6-2.9-1-3.9-1.2c-0.5,3.9-1.2,7.7-2,11.2c-1,4.3-1.5,6.8-1.7,7.6c-0.2,0.9-0.5,2.3-1.1,4.4
		c-0.6,2.2-1.1,3.8-1.7,4.9c-0.5,1-1.1,2.3-1.9,3.9C33,95.2,32,96.6,31,97.8c-4.1,4.5-8.3,6.8-12.4,6.8c-2.5,0-5.1-1.2-7.7-3.6
		c-6.3-5.6-9.4-12.3-9.4-19.9v-0.8c0-4.7,1.4-9.3,4.2-13.7c3-4.8,7.2-7.2,12.3-7.2h0.3c2.4,0,4.6,1,6.2,3c0.1,0.2,0.3,0.4,0.4,0.6
		l0-0.1c1.1-4.8,3.9-8,8-9.5c0-3.2-0.2-6.1-0.5-8.9c-0.3-3.4-0.6-6.6-0.6-9.6c-0.1-2.8-0.3-5.3-0.7-7.6c-0.3-2.2-1.1-4.7-2.2-7.5
		C28,17.7,27.2,17,26.7,17c-2.7,0-5.2,1.4-7.9,4.3c-2.7,2.9-4,5.7-4,8.3v1.8c0,1,0.1,2.1,0.2,3.2c0.1,0.8,0.5,1.6,1.1,2.6
		c0.2,0.2,0.6,0.9,2.3,0.9c1.2,0,1.3-0.3,1.4-0.5l0.1-0.2l0.1-0.2c0.2-0.3,0.4-0.7,0.8-1.1c-0.1-0.2-0.1-0.3-0.2-0.3
		c-1.7-2.1-1.3-3.7-0.8-4.5c0.6-1.1,1.7-1.8,2.9-1.9c0.1,0,0.3,0,0.4,0c1.2,0,2.2,0.5,2.9,1.5c1.7,2.2,2.5,4.2,2.6,6.2
		c0.1,1.9-0.1,2.9-0.4,3.7c-1.2,2.8-3.9,6-10.2,6c-5.5-0.1-11.9-3.1-11.9-17.1c0-3.7,1.6-7.5,4.9-11.3c3.1-3.6,6.3-6.1,9.5-7.5
		c4.5-1.9,5.7-2.1,6.4-2.1c3.4,0,6.9,2.1,10.7,6.4c3.6,4.1,5.6,7.6,6.2,10.9c0.8,4.9,1.2,8.3,1.2,10.6c0,3.8-0.4,9.1-1.1,15.7
		c4.4,0,8,0.1,10.8,0.1c4.7-0.8,8.8-1.6,12.4-2.5c0.3-3.8,0.6-6.9,0.7-9c0.1-2.5,0.3-4.7,0.4-6.5c0.1-1.8,0.5-4.1,1-6.8
		c0.6-2.8,1.2-5.1,2.1-7c0.9-1.9,2.2-3.7,3.8-5.3c1.8-1.7,3.5-2.8,5.2-3.1l0.1,0l0.1,0c0.5-0.1,0.9-0.1,1.3-0.1
		c2.9,0,4.2,1.9,4.2,3.8c0,2-1.2,3.5-3.1,3.8c-1.2,0.3-2.2,1-3,2.2c-1,1.4-1.7,3.1-2,5.1c-0.7,4.1-1.1,8.1-1.1,11.8l0.1,5.1
		c0,0.2,0,0.4,0,0.6c0.1-0.1,0.1-0.2,0.2-0.3l0.1-0.2l0.1-0.2c0.8-1,1.9-1.6,3.1-1.6c1.3,0,2.4,0.6,3.1,1.7c0.8,1.2,0.8,2.7,0.1,3.9
		c-2.1,3.6-4.7,6.6-7.7,8.8v2.2c0,8.4,1.7,19.1,5,31.9c1.3,4.3,2.1,5.1,2.2,5.2c1.4,1.3,2.1,2.8,2.1,4.3c0,1.5-0.7,2.9-1.9,4.2
		C81.5,105.7,80.1,106.3,78.7,106.3z M11.9,90.3c0.7,0.9,1.7,1.8,3.2,2.7c1.9,1.2,2.8,1.3,3.2,1.3c0.2,0,0.5,0,1-0.7l0.3-0.4
		l0.4-0.2c2.1-1.3,3.9-3.4,5.5-6.3c1.7-3.1,2.9-5.8,3.5-8c1.5-5.4,2.6-10.2,3.3-14.3c0,0,0,0,0,0c-0.3,1.5-1.4,2.6-2.9,2.9
		c-0.2,0-0.5,0.1-0.8,0.1c-0.8,0-1.5-0.2-2.1-0.6c0.1,0.7,0.2,1.3,0.2,2c0,2.3-0.7,4.8-2.1,7.5c-2.1,3.9-5,4.8-7.1,4.8h-0.3
		c-2.6,0-4.1-1.1-4.9-1.9c-1.2-1.2-1.8-2.9-1.9-5.2C8.1,79.4,8.6,84.8,11.9,90.3z M14,68.7c0.7,0,1.5,0.2,2.1,0.7
		c1.1,0.7,1.7,1.9,1.7,3.1v0.2c0,0,0-0.1,0-0.1c0.7-1.4,1.2-2.6,1.2-3.7c0-0.8-0.1-1.3-0.4-1.6c-0.3-0.3-0.4-0.4-0.5-0.4
		c-1.6,0.1-3,0.6-4.3,1.8C14,68.7,14,68.7,14,68.7z"/>
</g>
<g>
	<path style="fill:#840000;stroke:#000000;stroke-width:3;stroke-miterlimit:10;" d="M136.5,104.4c-4.2,0-7.9-2.2-10.8-6.6
		c-2.8-4-4.2-7.9-4.2-11.3c0-3.5,1-6.6,3.1-9c2.1-2.6,4.7-3.9,7.5-3.9c2.8,0,5.1,1,6.8,2.9c1.7,1.8,2.5,4,2.5,6.5
		c-0.1,5-2.8,7.9-7.2,7.9c-0.4,0-1.1,0-1.8-0.1c1.4,1.5,2.7,2.3,4.1,2.4c0.2,0,1-0.2,2.8-1.6c1.4-1.1,2.5-3.2,3.4-6.2
		c1-3.2,1.5-6.9,1.5-11c0-4.2-0.8-10.8-2.2-19.7c-1.6-9.2-2.3-15.5-2.3-19.1c0-3.3,0.4-8.1,1.2-14.4c-1.2-0.5-2.3-0.8-3.3-1.2
		c-1.6-0.5-3-1-4.3-1.4c-1.2-0.4-2.1-0.7-2.9-0.8c-2.4-0.5-4.4-0.7-5.9-0.7l-8.6,0.8l-0.1,0c-3.6,0.1-6.9,1.5-10.1,4.3
		c-3.1,2.7-4.5,5.8-4.5,9.3c0,2.4,0.4,5,1.3,7.6c0.9,2.6,1.8,2.6,2.1,2.6c1.4,0,3.9-1,7.7-5.5c4.1-5,4.7-7.7,4.7-8.8
		c0-0.8-0.1-1.3-0.1-1.6c-0.3,0.1-0.6,0.4-1,0.7c-1,0.8-1.7,1.6-2.1,2.3c-1.1,1.8-2.6,2.1-3.4,2.1c-0.7,0-1.3-0.2-2-0.6
		c-1.6-0.9-2.6-3.1-1.1-5.6c0.8-1.3,2-2.6,3.8-4.1c2-1.6,4.1-2.5,6.2-2.5l0.1,0c2.1,0.1,7.1,1.1,7.2,9.1c0.1,3.2-1,6.9-3.2,11.3
		c-4.4,8.8-10.2,13.3-17.1,13.3c-2.9,0-6.8-1.3-9.4-7.7c-1.8-4.3-2.7-8.5-2.7-12.4c0.1-6.1,2.6-11.4,7.5-15.8
		c4.8-4.4,10.1-6.6,15.7-6.6h0.1l8.6-0.8h0.1c7.2,0,13.8,0.8,19.4,2.4c2.1-3,5-4.8,8.6-5.5c0.3,0,0.5-0.1,0.7-0.1
		c1.2,0,2.2,0.5,2.9,1.4c0.7,1,0.9,2.2,0.6,3.4c-0.4,1.4-1.5,2.4-3,2.7c-0.9,0.2-1.6,0.5-2.2,0.9c1,0.4,1.7,0.8,2.2,1
		c0.3,0.2,1.1,0.5,2.9,0.7c1.7,0.2,4.9,0.9,9.7,2c5.8,1.4,7.9,1.6,8.7,1.6c1.9,0,3.2,0.2,4.2,0.6c0.1,0.1,0.2,0.1,0.3,0.1l0,0
		c1.3-0.2,2.2-0.7,3-1.6c0.8-0.9,1.1-2.1,1.1-3.7c0-0.8-0.2-2.1-2.1-3.4c-1.7-1.2-3.4-1.8-5.3-1.8h-0.8c-2.2,0-3.7-1.6-3.7-3.8
		c0-2.1,1.3-3.7,3.4-3.9l0.1,0h0.1c4.2,0,8.1,1.1,11.6,3.4c4.8,3.1,5.9,7,5.9,9.7c0,3.8-1.2,6.9-3.7,9.3c-2.3,2.3-5.1,3.7-8.5,4.2
		l-3.7,1.1h-0.4c-4,0-10.8-0.7-20.9-2.2c-1.8-0.3-4.1-1.1-7.1-2.5c0,0.1,0,0.2,0,0.3c0,1.6,0.3,3.3,0.8,5.1
		c4.8,17.2,7.2,32.4,7.2,45.1c0,6.7-1.2,13-3.6,18.6c-1.5,3.2-3.6,5.8-6.4,7.8C143.8,103.4,140.4,104.4,136.5,104.4z M132.1,81.9
		c-0.4,0-0.9,0.5-1.2,1c-0.2,0.2-0.3,0.5-0.5,0.8c0.5-0.3,1.1-0.4,1.9-0.4c0.4,0,0.8,0,1.2,0.1c0.1,0,0.1,0,0.2,0c0,0,0-0.1,0-0.2
		c0-0.6-0.2-0.8-0.4-0.9C133.3,82.1,133,81.9,132.1,81.9z"/>
</g>
<g>
	<path style="fill:#840000;stroke:#000000;stroke-miterlimit:10;" d="M198.3,76.8c-0.7,0-1.4-0.2-2.1-0.5c-0.7-0.3-1.4-0.8-1.8-1.5
		c-0.5-0.7-0.7-1.7-0.7-3.2c0-1.5,0.5-2.8,1.5-4c1-1.3,2.3-1.9,3.8-2c0,0,0,0,0,0c1,0,1.5,0.4,1.8,0.8c0.7,0.8,0.7,2.3,0.2,4.4
		c-0.1,0.4-0.4,0.8-0.8,0.8c-0.1,0-0.2,0-0.2,0c-0.3,0-0.6-0.1-0.8-0.3c-0.3-0.3-0.4-0.7-0.3-1.2c0-0.2,0.1-0.5,0.1-0.9
		c-0.4,0-0.7,0.3-1,0.7c-0.4,0.6-0.5,1.2-0.5,1.9c0,1.4,0.6,1.4,0.9,1.4c1,0,1.8-0.4,2.5-1.1c0.7-0.8,1.3-1.9,1.6-3.2
		c0.5-2.3,0.8-4.6,0.8-6.7c0-0.3,0-0.6,0-1.1c-2.3,1.7-4.7,2.6-7.4,2.6c-3,0-5.5-0.6-7.2-1.7c-1.8-1.1-3.1-2.7-4-4.6
		c-0.9-1.9-1.3-3.8-1.3-5.6c0-1.8,0.3-3.5,0.8-5.1c0.5-1.5,1-2.7,1.5-3.4c1.2-1.8,2.3-3.4,3.2-4.5c1.3-1.8,2.9-3.4,4.7-4.6
		c1.8-1.2,3.8-1.8,5.9-1.8h0.1c4.8,0,7.9,1.4,9.2,4.2c0.4,0.9,0.6,1.8,0.6,2.8c0,1-0.4,2.2-1.1,3.4c-1.3,2.3-3.2,3.4-5.6,3.4
		c-1.3,0-2.6-0.3-3.7-1c-1.3-0.7-1.9-1.8-1.9-3.1c0-0.7,0.1-1.5,0.4-2.4c0.3-0.7,0.9-1.3,1.7-1.8c0.9-0.5,1.6-0.8,2.3-0.8
		c0.9,0,2.2,0.4,2.8,2.5c0.1,0.4,0,0.9-0.3,1.2c-0.2,0.2-0.5,0.3-0.8,0.3l-0.1,0c-0.4,0-0.8-0.3-0.9-0.8c-0.1-0.4-0.3-0.4-0.4-0.4
		c-0.1,0-0.3,0-0.7,0.2c-0.7,0.4-1.2,0.9-1.4,1.6c0,0.1,0,0.2,0,0.3c0,0.2,0,0.9,1.4,1.6c0.4,0.2,0.9,0.3,1.4,0.3
		c0.5,0,1.1-0.2,1.7-0.5c1.2-0.6,2-1.7,2.4-3.6c0.1-0.3,0.1-0.7,0.1-1.2c0-0.4-0.1-0.8-0.4-1.3c-0.2-0.5-0.7-0.9-1.5-1.2
		c-1.5-0.6-3.2-0.9-5.2-0.9c-3,0-5.7,1.7-8.1,5.1c-1.5,2.1-2.6,4-3.3,5.6c-0.7,1.5-1,3.1-1,4.9c0,3.5,1.2,6,3.6,7.5
		c1.1,0.7,2.5,1,4.2,1c1.7,0,3-0.2,4.1-0.6c1.4-0.6,2.6-1.5,3.6-2.6c-0.5-1.9-0.7-3.4-0.7-4.7c0-1.4,0.3-2.4,0.9-3
		c0.3-0.3,0.7-0.5,1.2-0.6l0.1,0h0.1c0.8,0,2,0.3,2.8,1.9c0.6,1.1,0.9,2.3,0.9,3.3c0,1.7-0.7,3.5-1.9,5.2c0.2,0.9,0.3,2.1,0.3,3.7
		c0,7.5-1.8,12.2-5.3,14C199.8,76.6,199,76.8,198.3,76.8z"/>
	<path style="fill:#840000;stroke:#000000;stroke-miterlimit:10;" d="M202.7,40.9c-0.2,0.1-0.3,0.5-0.3,1.4s0.1,1.7,0.3,2.7
		c0-0.1,0.2-0.3,0.5-0.6c0.3-0.3,0.4-0.5,0.4-0.7C203.6,42.1,203.3,41.2,202.7,40.9z"/>
	<path style="fill:#840000;stroke:#000000;stroke-miterlimit:10;" d="M216.7,64.8c-1.4-0.1-2.9-0.7-4.3-1.8
		c-0.9-0.7-1.7-1.8-2.4-3.1c-0.6-1.4-0.9-2.5-0.9-3.5c0-0.9,0.2-2.2,0.5-3.8c0.3-1.7,1.2-3.4,2.7-5c1.4-1.5,3-2.3,4.6-2.3
		c1,0,1.9,0.3,2.6,0.8c0.7,0.6,1.1,1.4,1.1,2.3c0,0.4,0,0.8-0.1,1.2c1,0.1,1.8,0.8,2.5,2.3c0.6,1.3,0.8,2.7,0.8,4
		c0,1.4-0.4,2.9-1.3,4.6c-0.9,1.7-2,2.9-3.3,3.6C217.6,64.8,217,64.8,216.7,64.8L216.7,64.8z M215.2,49.2c-0.2,0.2-0.4,0.5-0.7,0.8
		c-0.3,0.3-0.5,0.7-0.6,1.1c-0.2,0.4-0.3,1.1-0.3,1.8c0,0.9-0.1,1.6-0.2,2.1c-0.1,0.6-0.1,0.9-0.1,0.9v1.5c0,1.5,0.1,1.9,0.1,1.9
		c0.1,0.3,0.2,0.5,0.3,0.6c0.2,0.3,0.3,0.6,0.5,0.7c1.5,1.1,2.3,1.2,2.6,1.2c0.6,0,1.2-0.3,1.9-0.8c0.8-0.6,1.3-1.2,1.7-1.9
		c0.7-1.3,1-2.7,1-3.9c0-0.6-0.1-1.2-0.3-1.6c-0.1,0.3-0.2,0.5-0.3,0.6c-0.3,0.3-0.7,0.5-1.1,0.5l-0.1,0c-0.7,0-1-0.4-1.1-0.7
		c-0.1-0.2-0.2-0.4-0.3-0.7c-0.2-0.4-0.3-0.8-0.3-1.2c0-0.1,0-0.2,0-0.3c-1-0.1-1.9-0.8-2.6-2.1C215.2,49.7,215.1,49.4,215.2,49.2z
		 M216.6,48.3c0.2,0.1,0.4,0.2,0.5,0.4c0.1,0.1,0.2,0.3,0.6,0.7c0.1,0.1,0.2,0.2,0.3,0.2c0.1-0.1,0.1-0.4,0.2-0.9
		c0-0.2-0.5-0.3-1.5-0.3C216.7,48.3,216.7,48.3,216.6,48.3z"/>
	<path style="fill:#840000;stroke:#000000;stroke-miterlimit:10;" d="M237.5,61.6c-1.5,0-2-0.9-2.2-1.4c-0.2-0.7-0.4-1.4-0.5-2.1
		c-0.1-0.5-0.1-1.2-0.2-1.8c-1.5,3-3.3,4.5-5.5,4.5c-1.1,0-2-0.7-2.7-2.1c-0.6-1.2-0.9-2.3-0.9-3.1c0-0.8,0-1.6,0.2-2.3
		c0.1-0.6,0.2-1.1,0.2-1.4c0-0.4,0.2-0.8,0.3-1.2c0.2-0.4,0.2-0.6,0.2-0.7c0.1-0.5,0.3-0.8,0.8-0.9c0.1,0,0.2-0.1,0.4-0.1
		c0.2,0,0.4,0.1,0.6,0.2c0.4,0.2,0.6,0.7,0.5,1.2c0,0.1,0,0.2,0,0.7c0.1,0.4,0.1,0.7,0.1,1v0l-0.4,3.1c0,1.9,0.4,2.8,0.7,2.8
		c0.5,0,1-0.3,1.6-0.8c0.6-0.6,1.1-1.4,1.5-2.4c0.6-1.5,1.2-3.2,1.6-5.1c0.1-0.6,0.6-1,1.4-1c0.3,0,1,0,1.3,0.6
		c0.1,0.2,0.3,0.5,0.6,1l0,0.1l0,0.1c0.3,0.9,0.6,2.4,1,4.4c0.4,2,0.7,3.3,0.9,3.8c0.2,0.6,0.3,1.1,0.3,1.4c0,0.4-0.2,0.8-0.6,1.2
		C238.3,61.4,237.9,61.6,237.5,61.6z"/>
	<path style="fill:#840000;stroke:#000000;stroke-miterlimit:10;" d="M242,65.7c-0.5,0-1-0.3-1.3-0.8c-0.3-0.4-0.4-0.8-0.4-1.3v-0.1
		l0.2-1.4l0.1-0.1c0.1-0.1,0.2-0.4,0-1.4c-0.2-1.1-0.2-1.9-0.2-2.6l0-1.5c0-6.7-0.6-7.9-0.7-8.2c-0.5-0.2-0.8-0.5-0.8-1
		c0-0.4,0.1-0.7,0.4-1c0.2-0.2,0.5-0.3,0.8-0.3c0.1,0,0.3,0,0.4,0.1c0.7,0.2,1.4,0.8,2,1.6c0.5,0.7,0.8,1.6,1.1,2.6
		c0.8-2.3,1.6-4.3,2.4-5.7c1.5-2.6,3.2-3.9,5.1-3.9c1.3,0,2.3,0.7,3.1,2c0.7,1.2,1.1,2.5,1.1,3.8c0,1.4-0.5,3-1.5,5
		c-1,2.1-2.3,3.2-3.7,3.2c-0.8,0-1.5-0.6-2-1.7c-0.5-1-0.7-2-0.7-2.9c0-1,0.3-2,1-3.3c0.2-0.4,0.6-0.6,1-0.6c0.4,0,0.7,0.2,1,0.5
		c0.4,0.5,0,1.2-0.1,1.4c0,0.1-0.2,0.5-0.2,2.4c0,0.9,0.1,1.3,0.1,1.5c0.4-0.1,0.8-0.6,1-1.6c0.4-1.3,0.5-2.8,0.5-4.2
		c0-2-0.3-2.4-0.3-2.5c-0.1-0.1-0.3-0.2-0.5-0.2c-1,0-3.1,1.4-5.9,10.7c-0.1,0.5-0.2,1.3-0.2,2.4c0,1.1-0.1,1.9-0.2,2.4
		c0.1,0.8,0.1,1.6,0.1,2.5c0,1-0.2,1.8-0.5,2.6C243.6,65.4,242.6,65.7,242,65.7z"/>
	<path style="fill:#840000;stroke:#000000;stroke-miterlimit:10;" d="M275.6,64.7c-1.3,0-2.5-1-3.6-2.8c-0.9-1.7-1.5-3.3-1.8-4.6
		c0-0.1-0.1-0.3-0.3-2.5c-0.1-0.9-0.2-1.7-0.4-2.3c-0.4,0.4-1,1.1-1.9,2.5c-1.2,1.9-2.1,3.4-2.7,4.7c-0.2,0.4-0.6,0.7-1.1,0.7
		c-0.2,0-0.3,0-0.5-0.1c-1.2-0.3-1.2-1.2-1.2-1.4c0-0.3,0-0.8,0-1.5c0-0.8,0-1.4,0.1-1.8c0.1-0.4,0.1-1,0.2-1.7
		c0.1-0.7,0.1-1.2,0.2-1.4c0-0.1,0-0.3,0-1.5c-0.4,0.5-0.9,1-1.5,1.7c-2.4,3-3.9,5.8-4.6,8.3c-0.2,0.5-0.5,0.8-1,0.8
		c-0.1,0-0.2,0-0.2,0c-0.3,0-0.6-0.1-0.8-0.2c-0.1-0.1-0.6-0.4-0.6-0.9c0-0.1,0-0.2,0.4-2c0.3-1.2,0.4-1.9,0.5-2.2
		c0-0.3,0.1-0.8,0.2-1.4c0.1-0.7,0.1-1.2,0.1-1.6c0-0.3,0-0.8,0-1.3c0-0.9-0.2-1.8-0.5-2.5c-0.3-0.6-0.1-1.2,0.5-1.5
		c0.2-0.1,0.4-0.2,0.6-0.2c0.2,0,0.7,0.1,1,0.6c0.3,0.7,0.5,1.4,0.7,2.1c0.5-0.8,1.2-1.6,2-2.6c1.5-1.8,2.8-2.6,3.9-2.7l0.1,0
		c1.1,0,1.9,0.4,2.5,1.3c0.5,0.8,0.8,1.9,0.8,3.3c0,0.3,0,0.6,0,0.9c1.2-1.5,2.4-2.2,3.5-2.2c0.8,0,1.8,0.3,2.4,2
		c0.8,2.3,1.4,4.3,1.6,5.9c0,0,0,0.2,0.2,2.2c0.1,1.2,0.2,2.2,0.5,2.9c0.2,0.7,0.5,0.7,0.6,0.7c0,0,0,0,0.1-0.1
		c0.3-0.2,0.5-0.4,0.7-0.5c0.1-0.1,0.3-0.1,0.4-0.1c0.2,0,0.5,0.1,0.8,0.5c0.2,0.3,0.3,0.6,0.3,0.8c0,0.2-0.1,0.6-0.5,0.8
		c-0.1,0-0.2,0.1-0.3,0.3C276.7,64.5,276.2,64.7,275.6,64.7z"/>
	<path style="fill:#840000;stroke:#000000;stroke-miterlimit:10;" d="M283.4,63.6c-1.7,0-3.2-0.6-4.3-1.8c-1.1-1.1-1.8-2.6-2.3-4.4
		l0-0.1v-0.1c0-2.2,0.6-4.3,1.6-6.2c1.1-2,2.7-3.3,4.8-3.9c0.5-0.1,1.2-0.2,2-0.2c0.9,0,1.8,0.5,2.6,1.5c0.7,1,1.1,2,1.1,2.9
		c0,1-0.4,2-1.1,2.9c-0.7,1-1.7,1.6-2.9,1.6c0,0,0,0,0,0c-0.6,0-1.4-0.3-2.7-0.8c-0.7-0.3-1.3-0.6-1.7-0.9c-0.5,1.9-0.2,3.7,1,5.4
		c0.5,0.6,0.9,1,1.5,1c0.6,0,1.3-0.3,2-0.8c0.8-0.5,1.3-1.1,1.4-1.5c0.3-0.9,0.8-1.3,1.4-1.3l0.1,0c0.6,0.1,0.9,0.5,0.9,1
		c0,0.3-0.1,0.6-0.2,1c-0.4,1.2-1.1,2.2-2,3.1C285.7,63.2,284.6,63.6,283.4,63.6L283.4,63.6z M281.5,52.2c0.2,0.1,0.6,0.3,1.5,0.6
		c1.4,0.5,1.9,0.6,2.2,0.6c0.1,0,0.3,0,0.6-0.5c0.3-0.5,0.4-0.9,0.4-1.3c0-0.4-0.2-0.8-0.5-1.2c-0.4-0.5-0.6-0.6-0.6-0.6
		c-0.2,0-0.5,0.1-0.9,0.3l-0.1,0l-0.1,0C283,50.4,282.1,51.1,281.5,52.2z"/>
	<path style="fill:#840000;stroke:#000000;stroke-miterlimit:10;" d="M294.7,67.5c-0.9,0-1.8-0.5-2.5-1.4c-1.1-1.3-1.6-2.7-1.6-4.3
		c0.1-3.3,0.3-5.3,0.4-6.2c0.1-0.9,0.3-1.8,0.5-2.8c0.2-1,0.4-1.9,0.5-2.7c0.1-0.6,0.2-1.2,0.3-1.8c-0.1,0-0.2,0-0.4,0
		c-0.6,0-1.2-0.3-1.6-0.7c-0.5-0.5-0.7-1-0.7-1.6c0-0.4,0.1-1.1,0.6-1.3c0.2-0.1,0.4-0.1,0.6-0.1c0.2,0,0.4,0,0.5,0.1
		c0.2,0.1,0.3,0.2,0.4,0.4h0.2l0,0.7c0,0.4,0.1,0.4,0.4,0.4c0.1,0,0.2,0,0.4-0.1c0.1-1,0.1-2.2,0.1-3.6c0-1.6-0.2-3.3-0.6-5.1
		c-0.2-0.6,0.1-1,0.3-1.1c0.2-0.1,0.4-0.3,0.7-0.3c0.5,0,1,0.3,1.1,0.8c0.1,0.2,0.2,0.5,0.4,0.8c0.2,0.4,0.4,0.8,0.4,1
		c0.4,1.8,0.6,3.8,0.7,5.8c0.6-0.2,1.1-0.3,1.5-0.3c1.1,0,2.6,0.4,3.5,2.6c0.2,0.5,0.1,0.9-0.2,1.2c-0.2,0.2-0.5,0.4-0.8,0.4
		c-0.1,0-0.1,0-0.2,0c-0.4-0.1-0.7-0.4-0.9-0.8c0-0.1-0.2-0.5-1.3-0.5c-0.3,0-0.8,0.1-1.5,0.4c0,1.6-0.1,3-0.3,4.1
		c-0.2,1.2-0.3,2.7-0.4,4.4c0.3-2.2,1-4.8,3.2-4.8c0.9,0,1.6,0.5,2.3,1.4c0.8,1.4,1.3,2.9,1.3,4.7c0,5.4-1.5,8.8-4.4,10.1
		C296.4,67.3,295.5,67.5,294.7,67.5z M294.7,58.4c0,0.6,0,1.3,0,1.9v1.3l0,1.2l0,0.6c0,0.2,0,0.4,0,0.6c0,0.2,0.1,0.4,0.1,0.6
		c0,0.1,0,0.2,0.1,0.3c0,0.1,0.1,0.1,0.1,0.2c0.1,0,0.2,0,0.4-0.1c1-0.5,1.8-1.5,2.4-3.1c0.1-0.3,0.2-0.7,0.3-1
		c-0.3,0.2-0.7,0.4-1.1,0.4c-0.5,0-1.3-0.2-1.8-1.3C294.9,59.4,294.7,58.9,294.7,58.4z M297.8,53.3c-0.2,0-0.3,0.2-0.4,0.4
		c-0.3,0.7-0.4,1.4-0.4,1.9v1.7c0.2-0.2,0.5-0.4,0.9-0.4c0.3,0,0.6,0.1,0.8,0.2c0-0.2,0-0.3,0-0.5c0-0.2,0-0.5,0-1c0-0.5,0-0.8,0-1
		c-0.1-0.4-0.2-0.8-0.4-1.1C298,53.5,297.9,53.4,297.8,53.3z"/>
	<path style="fill:#840000;stroke:#000000;stroke-miterlimit:10;" d="M169.1,105.2c-1.9,0-3.4-1.9-4.6-5.8c-0.2-0.9-0.3-2-0.3-3.3
		c0-1.4,0.3-2.7,0.8-4c0.6-1.5,1.4-2.2,2.5-2.3c0,0,0,0,0,0c0.7,0,1.2,0.2,1.5,0.6c0.1,0.2,0.2,0.3,0.3,0.4c0.1,0.2,0.2,0.4,0.4,0.7
		c0.1,0.3,0.1,0.5,0.2,0.5c0,0.1,0.1,0.2,0.1,0.5c0.1,0.3,0.1,0.5,0.1,0.7c0,0.4-0.1,0.7-0.5,1c-0.2,0.1-0.4,0.2-0.6,0.2
		c-0.1,0-0.3,0-0.4-0.1c-0.4-0.1-0.6-0.5-0.7-0.9c-0.1-0.7-0.3-1-0.4-1.2c-0.1,0.1-0.4,0.3-0.5,0.9c-0.3,0.9-0.4,1.9-0.4,3
		c0,1.1,0.3,2.3,0.8,3.8c0.4,1,0.8,1.6,1.4,1.8c0-0.2,0.1-0.4,0.2-0.8l0-0.1l0.1-0.1c0,0,0,0,0-0.1c0-0.2,0.1-0.5,0.3-0.8
		c0.1-0.2,0.2-0.5,0.3-1.2c0.1-0.6,0.2-1.1,0.3-1.5c0.1-0.4,0.2-1,0.3-1.7c0.1-0.7,0.2-1.2,0.3-1.6c0-5.4-0.2-8.9-0.5-10.6
		c-0.3-1.4-0.4-2.7-0.5-3.9c0,0.1-0.1,0.2-0.1,0.3c-0.3,0.8-0.8,1.4-1.4,1.8c-0.6,0.4-1.2,0.7-1.8,0.7h0l-0.5-0.1l0,0
		c-0.6-0.1-1.3-0.6-1.3-2.2c0-2,0.8-4.1,2.5-6.4c1.6-2.2,3.7-4.1,6.2-5.5c2.5-1.5,4.8-2.2,6.9-2.2c2.1,0,4.1,0.6,6,1.8
		c4,2.6,6,6.2,6,10.7c0,1.9-0.5,4-1.4,6.1c-0.9,2.1-2.3,4-4,5.6c-1.8,1.6-3.7,2.4-5.7,2.4H180c-1,0-2-0.4-3-1.3
		c-1-0.8-1.6-1.7-1.9-2.7c0-0.1-0.1-0.3-0.3-0.8c-0.2-0.5-0.2-1-0.2-1.4c0-0.9,0.4-1.7,1.2-2.4c0.8-0.7,1.6-1,2.4-1
		c0.8,0,1.1,0.3,1.3,0.6c0.2,0.4,0.2,0.8-0.1,1.2c-0.3,0.5-0.7,0.5-0.9,0.5h-0.6c0,0-0.2,0-0.5,0.4c-0.4,0.3-0.4,0.6-0.4,0.8
		c0,0.8,0.3,1.4,0.8,1.9c0.5,0.5,1.2,0.7,2.1,0.7l0.8-0.2h0.1c1.3,0,2.4-0.6,3.5-1.7c1.1-1.2,2-2.6,2.5-4.2c0.6-1.6,0.8-3.2,0.8-4.6
		c0-3.3-1.3-5.7-4-7.4c-0.1-0.1-0.5-0.3-1-0.7c-0.6-0.4-0.9-0.6-1-0.7c-0.6-0.4-1.2-0.5-1.9-0.5c-2.5,0-5.1,1-7.9,3
		c-0.1,0.7-0.2,1.4-0.2,2.3c0,0.9,0.1,1.8,0.2,2.6c0.1,0.8,0.3,1.7,0.6,2.6c0.2,1,0.4,1.7,0.5,2.3c0.1,0.5,0.4,1.6,0.8,3.2
		c0.4,1.7,0.7,3.1,0.8,4.1l0,5.2c0,2-0.6,4.5-1.7,7.4C172,104,170.7,105.2,169.1,105.2z M166.7,78.5c0,0.1,0,0.2,0.1,0.7
		c0.2-0.1,0.4-0.3,0.6-0.7c0.2-0.4,0.5-0.6,1-0.6c0.4,0,0.7,0.2,0.9,0.5c0.1,0.1,0.1,0.2,0.2,0.3c0-0.2,0-0.4,0-0.6
		c0-1.6,0-3,0.1-4.2C168.1,75.3,167.1,76.9,166.7,78.5z"/>
	<path style="fill:#840000;stroke:#000000;stroke-miterlimit:10;" d="M196.4,103.8c-0.5,0-1-0.3-1.3-0.8c-0.3-0.4-0.4-0.8-0.4-1.3
		v-0.1l0.2-1.4l0.1-0.1c0.1-0.1,0.2-0.4,0-1.4c-0.2-1.1-0.2-1.9-0.2-2.6l0-1.5c0-6.7-0.6-7.9-0.7-8.2c-0.5-0.2-0.8-0.5-0.8-1
		c0-0.4,0.1-0.7,0.4-1c0.2-0.2,0.5-0.3,0.8-0.3c0.1,0,0.3,0,0.4,0.1c0.7,0.2,1.4,0.8,2,1.6c0.5,0.7,0.8,1.6,1.1,2.6
		c0.8-2.3,1.6-4.3,2.4-5.7c1.5-2.6,3.2-3.9,5.1-3.9c1.3,0,2.3,0.7,3.1,2c0.7,1.2,1.1,2.5,1.1,3.8c0,1.4-0.5,3-1.5,5
		c-1,2.1-2.3,3.2-3.7,3.2c-0.8,0-1.5-0.6-2-1.7c-0.5-1-0.7-2-0.7-2.9c0-1,0.3-2,1-3.3c0.2-0.4,0.6-0.6,1-0.6c0.4,0,0.7,0.2,1,0.5
		c0.4,0.5,0,1.2-0.1,1.4c0,0.1-0.2,0.5-0.2,2.4c0,0.9,0.1,1.3,0.1,1.5c0.4-0.1,0.8-0.6,1-1.6c0.4-1.3,0.5-2.8,0.5-4.2
		c0-2-0.3-2.4-0.3-2.5c-0.1-0.1-0.3-0.2-0.5-0.2c-1,0-3.1,1.4-5.9,10.7c-0.1,0.5-0.2,1.3-0.2,2.4c0,1.1-0.1,1.9-0.2,2.4
		c0.1,0.8,0.1,1.6,0.1,2.5c0,1-0.2,1.8-0.5,2.6C198,103.5,197.1,103.8,196.4,103.8z"/>
	<path style="fill:#840000;stroke:#000000;stroke-miterlimit:10;" d="M219.3,103c-1.4-0.1-2.9-0.7-4.3-1.8c-0.9-0.7-1.7-1.8-2.4-3.1
		c-0.6-1.4-0.9-2.5-0.9-3.5c0-0.9,0.2-2.2,0.5-3.8c0.3-1.7,1.2-3.4,2.7-5c1.4-1.5,3-2.3,4.6-2.3c1,0,1.9,0.3,2.6,0.8
		c0.7,0.6,1.1,1.4,1.1,2.3c0,0.4,0,0.8-0.1,1.2c1,0.1,1.8,0.8,2.5,2.3c0.6,1.3,0.8,2.7,0.8,4c0,1.4-0.4,2.9-1.3,4.6
		c-0.9,1.7-2,2.9-3.3,3.6C220.2,102.9,219.6,103,219.3,103L219.3,103z M217.7,87.3c-0.2,0.2-0.4,0.5-0.7,0.8
		c-0.3,0.3-0.5,0.7-0.6,1.1c-0.2,0.4-0.3,1.1-0.3,1.8c0,0.9-0.1,1.6-0.2,2.1c-0.1,0.6-0.1,0.9-0.1,0.9v1.5c0,1.5,0.1,1.9,0.1,1.9
		c0.1,0.3,0.2,0.5,0.3,0.6c0.2,0.3,0.3,0.6,0.5,0.7c1.5,1.1,2.3,1.2,2.6,1.2c0.6,0,1.2-0.3,1.9-0.8c0.8-0.6,1.3-1.2,1.7-1.9
		c0.7-1.3,1-2.7,1-3.9c0-0.6-0.1-1.2-0.3-1.6c-0.1,0.3-0.2,0.5-0.3,0.6c-0.3,0.3-0.7,0.5-1.1,0.5l-0.1,0c-0.7,0-1-0.4-1.1-0.7
		c-0.1-0.2-0.2-0.4-0.3-0.7c-0.2-0.4-0.3-0.8-0.3-1.2c0-0.1,0-0.2,0-0.3c-1-0.1-1.9-0.8-2.6-2.1C217.8,87.8,217.7,87.5,217.7,87.3z
		 M219.2,86.4c0.2,0.1,0.4,0.2,0.5,0.4c0.1,0.1,0.2,0.3,0.6,0.7c0.1,0.1,0.2,0.2,0.3,0.2c0.1-0.1,0.1-0.4,0.2-0.9
		c0-0.2-0.5-0.3-1.5-0.3C219.3,86.4,219.3,86.4,219.2,86.4z"/>
	<path style="fill:#840000;stroke:#000000;stroke-miterlimit:10;" d="M243.1,105.1c-1,0-1.9-0.5-2.7-1.5c-0.7-0.9-1.2-1.8-1.4-2.7
		c-0.1-0.4-0.2-0.8-0.4-1.4c-0.1,0.1-0.2,0.2-0.4,0.5c-0.6,0.8-1.1,1.2-1.7,1.3c-0.4,0.1-0.8,0.1-1.1,0.1c-1.6,0-3.1-0.7-4.6-2.1
		c-1.8-1.7-2.7-3.8-2.7-6.1c0-0.8,0.1-1.8,0.2-3c0.2-1.3,0.8-2.6,1.8-3.7c1.2-1.3,2.5-2,3.8-2c0.8,0,1.5,0.4,2.4,1.1
		c0.3,0.3,0.6,0.6,0.9,1c0,0,0-0.1,0-0.1c0-0.6,0.1-1.3,0.2-2.1c0.1-0.8,0.2-1.3,0.2-1.6c0.4-3,1.2-5.6,2.6-7.9
		c0.5-0.8,1.1-1.3,1.8-1.3h0.1l0.1,0c2.1,0.3,2.1,3.5,2.1,4.5c0,3.1-0.9,6.8-2.5,10.8c-0.3,0.7-0.6,1.4-1.1,2.2
		c0,1.3,0.1,2.5,0.3,3.4c0.2,1,0.3,1.9,0.4,2.6c0.1,0.7,0.2,1.3,0.3,1.8c0.1,0.5,0.2,1.1,0.4,1.7c0.3,1.2,0.7,1.7,0.9,1.7l0.1,0
		l0.5,0.2c0,0,0.1,0,0.1,0c0.2-0.1,0.4-0.2,0.6-0.2c0.5,0,0.8,0.4,0.8,0.8c0,0.7-0.3,1.2-0.9,1.6C243.7,105,243.4,105.1,243.1,105.1
		z M234.2,87.3c-0.3,0-1.5,0-2.3,2.3c-0.4,1.2-0.6,2.1-0.6,2.7c0,0.7,0,1.1,0.1,1.5c0.2,1.2,0.7,2.1,1.5,2.9
		c0.8,0.8,1.6,1.2,2.4,1.2c0.1,0,0.2,0,0.3,0c0,0,0.1-0.1,0.3-0.3c0.3-0.3,0.5-0.6,0.8-1c0.3-0.4,0.5-0.6,0.6-0.7c0,0,0,0,0,0
		c0,0,0.1-0.1,0.2-0.5c-0.2-1.5-0.4-2.9-0.5-4.1c-0.1,0.3-0.3,0.5-0.5,0.8c-0.3,0.5-0.8,0.8-1.4,0.9c-0.1,0-0.3,0-0.4,0
		c-0.5,0-0.9-0.1-1.4-0.4c-0.7-0.4-1-0.8-1.1-1.3c-0.1-0.4-0.1-0.7,0-1c0.1-0.2,0.2-0.5,0.3-0.8c0.1-0.2,0.2-0.4,0.2-0.4l0-0.1
		l0-0.1c0.2-0.3,0.5-0.5,0.8-0.6l0.1,0c0.3,0,0.6,0.2,0.8,0.4c0.1,0.2,0.3,0.5,0.2,0.9l0,0.1l0,0.1c-0.1,0.3-0.2,0.5-0.2,0.7
		c0,0,0,0,0.1,0c0,0,0.1,0,0.1,0c0,0,0.1-0.1,0.2-0.3c0.4-0.8,0.4-1.1,0.4-1.2c0-0.3,0-0.5,0-0.7c0,0,0,0,0,0c0,0-0.1-0.2-0.5-0.4
		C234.4,87.4,234.2,87.3,234.2,87.3z M241.9,77.8c-0.1,0.2-0.1,0.5-0.2,0.9c-0.1,0.5-0.2,1-0.3,1.3c0,0.3-0.1,0.9-0.2,1.6
		c0,0.5-0.1,1.1-0.2,1.7C241.5,81.4,241.8,79.5,241.9,77.8z"/>
	<path style="fill:#840000;stroke:#000000;stroke-miterlimit:10;" d="M257.4,99.7c-1.5,0-2-0.9-2.2-1.4c-0.2-0.7-0.4-1.4-0.5-2.1
		c-0.1-0.5-0.1-1.2-0.2-1.8c-1.5,3-3.3,4.5-5.5,4.5c-1.1,0-2-0.7-2.7-2.1c-0.6-1.2-0.9-2.3-0.9-3.1c0-0.8,0-1.6,0.2-2.3
		c0.1-0.6,0.2-1.1,0.2-1.4c0-0.4,0.2-0.8,0.3-1.2c0.2-0.4,0.2-0.6,0.2-0.7c0.1-0.5,0.3-0.8,0.8-0.9c0.1,0,0.2-0.1,0.4-0.1
		c0.2,0,0.4,0.1,0.6,0.2c0.3,0.2,0.6,0.6,0.5,1.2c0,0.1,0,0.2,0,0.7c0.1,0.4,0.1,0.7,0.1,1v0l-0.4,3.1c0,1.9,0.4,2.8,0.7,2.8
		c0.5,0,1-0.3,1.6-0.8c0.6-0.6,1.1-1.4,1.5-2.4c0.6-1.4,1.2-3.2,1.6-5.1c0.1-0.6,0.6-1,1.4-1c0.3,0,1,0,1.3,0.6
		c0.1,0.2,0.3,0.5,0.6,1l0,0.1l0,0.1c0.3,0.9,0.6,2.4,1,4.4c0.4,2,0.7,3.3,0.9,3.8c0.2,0.6,0.3,1.1,0.3,1.4c0,0.4-0.2,0.8-0.6,1.2
		C258.3,99.5,257.8,99.7,257.4,99.7z"/>
	<path style="fill:#840000;stroke:#000000;stroke-miterlimit:10;" d="M268.1,102.5c-2.4,0-4.3-0.8-5.7-2.3c-1.3-1.5-2-3.5-2-6.1
		c0-1.5,0.3-3.1,0.8-4.8c0.6-1.7,1.4-3.3,2.6-4.7c1.2-1.5,2.7-2.2,4.4-2.2c1.6,0,2.8,0.2,3.6,0.5c0.9,0.3,1.6,1.1,2.1,2.1
		c0.5,1,0.7,2,0.7,3.1c0,1.2-0.4,2.2-1.2,3.1c-0.8,0.9-1.8,1.3-2.9,1.3h-0.1c-1,0-1.7-0.3-2.1-0.8c-0.4-0.5-0.6-1-0.6-1.5
		c0-0.4,0.1-0.8,0.2-1.2c0.2-0.5,0.5-0.9,1-1c0.1,0,0.2,0,0.4,0c0.4,0,0.7,0.1,1,0.4c0.1,0.1,0.2,0.3,0.3,0.5v-0.8
		c0-1-0.3-1.9-2.6-1.9c-0.8,0-1.6,0.4-2.3,1.3c-0.8,1-1.4,2.1-1.8,3.3c-0.4,1.2-0.6,2.4-0.6,3.4c0,1.8,0.4,3.2,1.2,4.2
		c0.8,1,1.9,1.4,3.5,1.4c0.4,0,1-0.3,1.5-0.8c0.8-0.7,0.8-1.1,0.8-1.2c0-0.4,0-0.6-0.1-0.8c-0.1,0.7-0.5,1.1-0.8,1.2
		c-0.2,0.1-0.4,0.1-0.6,0.1c-0.3,0-0.5-0.1-0.8-0.2c-0.3-0.2-0.7-0.6-0.7-1.6c0-0.6,0.3-1.2,0.8-1.7c0.5-0.5,1.2-0.8,2-0.8
		c0.6,0,1.4,0.2,2,1.2c0.5,0.7,0.7,1.5,0.7,2.5c0,1-0.6,2-1.6,3.2C270.3,102,269.2,102.5,268.1,102.5z"/>
	<path style="fill:#840000;stroke:#000000;stroke-miterlimit:10;" d="M281.1,105.6c-0.9,0-1.8-0.5-2.5-1.4c-1.1-1.3-1.6-2.7-1.6-4.3
		c0.1-3.3,0.3-5.3,0.4-6.2c0.1-0.9,0.3-1.8,0.5-2.8c0.2-1,0.4-1.9,0.5-2.7c0.1-0.6,0.2-1.2,0.3-1.8c-0.1,0-0.2,0-0.4,0
		c-0.6,0-1.2-0.3-1.6-0.7c-0.5-0.5-0.7-1-0.7-1.6c0-0.3,0-1,0.6-1.3c0.2-0.1,0.4-0.1,0.6-0.1c0.2,0,0.4,0,0.5,0.1
		c0.2,0.1,0.3,0.2,0.4,0.4h0.2l0,0.7c0,0.4,0.1,0.4,0.4,0.4c0.1,0,0.2,0,0.4-0.1c0.1-1,0.1-2.2,0.1-3.6c0-1.6-0.2-3.3-0.6-5.1
		c-0.2-0.6,0.1-1,0.3-1.1c0.2-0.1,0.4-0.3,0.7-0.3c0.5,0,1,0.3,1.1,0.8c0.1,0.2,0.2,0.5,0.4,0.8c0.2,0.4,0.4,0.8,0.4,1
		c0.4,1.8,0.6,3.8,0.7,5.8c0.6-0.2,1.1-0.3,1.5-0.3c1.1,0,2.6,0.4,3.5,2.6c0.2,0.5,0.1,0.9-0.2,1.2c-0.2,0.2-0.5,0.4-0.8,0.4
		c-0.1,0-0.1,0-0.2,0c-0.4-0.1-0.7-0.4-0.9-0.8c0-0.1-0.2-0.5-1.3-0.5c-0.3,0-0.8,0.1-1.5,0.4c0,1.6-0.1,3-0.3,4.1
		c-0.2,1.2-0.3,2.7-0.4,4.4c0.3-2.2,1-4.8,3.2-4.8c0.9,0,1.6,0.5,2.3,1.4c0.8,1.4,1.3,2.9,1.3,4.7c0,5.4-1.5,8.8-4.4,10.1
		C282.8,105.4,282,105.6,281.1,105.6z M281.1,96.5c0,0.6,0,1.3,0,1.9v1.3l0,1.2l0,0.6c0,0.2,0,0.4,0,0.6l0.1,0.6
		c0,0.1,0,0.2,0.1,0.2c0,0.1,0.1,0.1,0.1,0.2c0.1,0,0.2,0,0.4-0.1c1-0.5,1.8-1.5,2.4-3.1c0.1-0.3,0.2-0.7,0.3-1
		c-0.3,0.2-0.7,0.4-1.1,0.4c-0.5,0-1.3-0.2-1.8-1.3C281.3,97.5,281.1,97,281.1,96.5z M284.2,91.4c-0.2,0-0.3,0.2-0.4,0.4
		c-0.3,0.7-0.4,1.4-0.4,1.9v1.7c0.2-0.2,0.5-0.4,0.9-0.4c0.3,0,0.6,0.1,0.8,0.2c0-0.2,0-0.3,0-0.5c0-0.2,0-0.5,0-1c0-0.5,0-0.8,0-1
		c-0.1-0.4-0.2-0.8-0.4-1.1C284.4,91.6,284.3,91.5,284.2,91.4z"/>
	<path style="fill:#840000;stroke:#000000;stroke-miterlimit:10;" d="M293.7,103.4c-0.7,0-1.3-0.2-1.9-0.6c-0.5-0.4-0.9-0.8-1.2-1.1
		c-1.2-1.6-1.7-3.4-1.7-5.5c0-2.1,0.6-3.8,1.7-5.2c0.5-0.7,1.3-1.2,2.4-1.3c-0.4-0.1-0.7-0.2-1-0.3c-0.4-0.2-0.8-0.5-1.2-1.1
		c-0.4-0.6-0.6-1.4-0.6-2.5c0-1.1,0.5-2.4,1.5-3.9c1.3-1.9,2.8-2.9,4.4-2.9c0.8,0,1.6,0.4,2.4,1.1c0.8,0.8,1.2,1.7,1.2,2.8
		c0,1.1-0.3,2-0.8,2.9c-0.7,1.2-1.7,1.5-2.3,1.5c-0.5,0-1-0.3-1.5-0.9c-0.4-0.5-0.6-0.9-0.6-1.3c0-0.4,0-0.6,0.1-0.8
		c0.1-0.2,0.2-0.4,0.5-0.6c0.1-0.1,0.2-0.2,0.3-0.3c0.2-0.2,0.5-0.4,0.8-0.4c0.1,0,0.2,0,0.2,0c0.4,0.1,0.6,0.3,0.8,0.6
		c0.1,0.3,0.1,0.7-0.1,1l0,0c-0.1,0.1-0.2,0.2-0.2,0.2c0,0,0,0,0,0.1c0.1-0.1,0.3-0.2,0.5-0.5c0.3-0.5,0.4-1,0.4-1.5
		c0-0.4-0.2-0.8-0.5-1.1c-0.5-0.4-0.7-0.5-0.7-0.5c-0.9,0-1.7,0.5-2.4,1.6c-0.7,1.1-1.1,2.1-1.1,3c0,0.6,0.2,0.8,0.5,0.9
		c0.4,0.2,0.8,0.3,1.4,0.4l1.2,0.2l0,0c1.3,0.4,2.2,1,2.7,1.9c0.5,0.8,0.8,1.9,0.8,3.2c0,2.9-0.7,5.5-2.1,7.7
		c-0.8,1.3-1.1,1.6-1.2,1.7C295.2,102.9,294.4,103.4,293.7,103.4z M293.5,99.5c0.1,0.1,0.1,0.2,0.2,0.3c0.2-0.1,0.6-0.5,1.1-1.2
		c1.2-1.8,1.8-3.8,1.8-6c0-1.1-0.2-1.6-0.3-1.8c-0.1-0.2-0.4-0.5-1.2-0.7c-0.1,0-0.1,0-0.3-0.1c0.3,0.2,0.6,0.6,0.9,1.1
		c0.4,0.8,0.6,1.7,0.6,2.5v0.1l-0.2,0.7c0,0.8-0.4,1.5-1.1,2.2c-0.8,0.7-1.3,1-1.8,1c-0.2,0-0.4,0-0.6-0.2
		C292.7,98.2,293.1,98.9,293.5,99.5z M293,93.7c0.1,0,0.3,0.1,0.4,0.1c0.3,0.2,0.5,0.5,0.5,0.8c0,0,0-0.1,0.1-0.2
		c0-0.1,0-0.2,0.1-0.2l-0.1-0.7v-0.1c0-0.3-0.1-0.6-0.2-0.8c0,0,0,0,0-0.1c0,0.1-0.1,0.1-0.1,0.2l0,0.1l0,0
		C293.3,93.2,293.1,93.5,293,93.7z"/>
</g>
<g>
	<path d="M99,100.7c-3,0-5.6-0.9-7.6-2.5c-2.1-1.7-3.2-4.3-3.2-7.6c0-2.7,0.8-5.6,2.4-8.4c-1.2-0.8-2.1-1.9-2.9-3.3
		c-1-1.8-1.4-3.9-1.4-6.2c0-2.4,0.8-4.7,2.4-7c1.6-2.3,3.6-3.9,6.1-4.8c2.3-0.9,4.4-1.3,6.1-1.3c1.9,0,3.7,0.7,5.3,2
		c1.7,1.4,2.6,3.2,2.6,5.2c0,2-0.9,3.9-2.7,5.7c-0.9,0.9-1.8,1.5-2.6,2c0.5,0.2,1,0.5,1.4,1c0.7,0.8,1.1,1.7,1.1,2.8
		c0,1.6-1.2,2.9-3.7,3.8c0.4-0.1,0.8-0.2,1.2-0.3c1.2-0.2,1.7-0.3,2-0.4c0.4-0.1,0.9-0.3,1.6-0.5c0.7-0.2,1.3-0.4,1.6-0.5
		c0.3-0.1,0.8-0.3,1.3-0.6c0.9-0.4,1.6-0.9,2-1.4c2.2-2.5,2.6-4.1,2.7-5c0-0.2,0-0.5-0.4-0.9c-0.4-0.4-0.7-0.4-0.9-0.4h-0.1
		c-0.5,0-0.8,0.1-1.1,0.5c-0.4,0.5-0.5,0.7-0.5,0.7c0,0.4,0,0.6,0,0.6c0.1,0.6-0.2,1.2-0.7,1.6c-0.3,0.2-0.6,0.3-1,0.3
		c-0.2,0-0.4,0-0.6-0.1c-0.8-0.2-1.2-1-1.2-2.3c0-1,0.5-2.1,1.4-3.1c1-1.1,2.2-1.7,3.6-1.7c1.4,0,2.6,0.5,3.5,1.4
		c1,0.9,1.5,2.1,1.5,3.4c0,2.7-1.1,5.3-3.2,7.5c-1.4,1.6-3.6,3-6.6,4.2c0.5,1,0.8,2.3,0.8,3.7c0,1.6-0.3,2.8-1,3.6
		c-0.3,0.4-0.4,0.7-0.6,0.9c-0.2,0.4-0.5,0.9-1.1,1.7c-0.5,0.8-0.9,1.3-1,1.6c-0.2,0.3-0.5,0.7-1.1,1.4c-0.6,0.7-1.1,1.1-1.5,1.4
		C101.6,100.3,100.3,100.7,99,100.7z M95.3,83.4c-1.3,2.2-2,4.7-2,7.4c0,1.6,0.5,2.8,1.5,3.6c1.1,0.9,2.4,1.3,4.1,1.3
		c1.3,0,2.5-0.6,3.7-1.7c-0.2,0.1-0.5,0.1-0.7,0.1c-0.1,0-0.1,0-0.2,0h-2.2c-1.3,0-2.5-0.4-3.5-1.1c-1.1-0.8-1.6-2.1-1.6-3.9
		c0-1.7,0.6-3.2,1.9-4.3c1.1-0.9,2.3-1.6,3.6-2.1C98.1,83.1,96.6,83.4,95.3,83.4z M101.9,88.7c1.1,0,2,0.5,2.5,1.5
		c0.2,0.4,0.3,0.9,0.3,1.3c0.1-0.2,0.2-0.3,0.3-0.5c0.4-0.8,0.7-1.5,0.7-2.2c0-1-0.2-1.2-0.2-1.2c0,0,0,0,0,0c0,0,0,0-0.1,0
		c-0.3,0-1-0.2-1.4-0.9c-1.9,0.6-3.2,1.3-3.7,2.1H101.9z M101.1,63.6c-0.6,0-1.9,0.2-4.3,1c-1.9,0.7-3.3,1.8-4.3,3.4
		c-1.1,1.6-1.6,3.2-1.6,4.8c0,1.6,0.3,2.9,1,4c0.4,0.7,0.9,1.2,1.5,1.5c1.6-1.6,3.3-2.8,5.1-3.4c-0.8-0.2-1.4-0.5-2-1
		c-1.2-0.9-1.7-2.2-1.7-3.9c0-1.6,0.6-3,1.7-4.1c1.1-1.1,2.5-1.7,4-1.7c1.6,0,2.8,0.5,3.4,1.4c0.5,0.7,0.8,1.3,0.8,1.9
		c0-0.2,0.1-0.4,0.1-0.7c0-0.9-0.4-1.6-1.2-2.2C102.6,63.9,101.8,63.6,101.1,63.6z M100.5,68c-0.6,0-1.1,0.2-1.5,0.6
		c-0.4,0.4-0.6,0.8-0.6,1.4c0,0.6,0.2,0.8,0.4,1c0.4,0.2,0.9,0.4,1.5,0.4c-0.4-0.2-0.8-0.7-0.9-1.2c-0.2-1,0.3-1.8,1.2-2.1
		c0,0,0,0,0,0c0,0,0-0.1,0-0.1C100.7,68,100.6,68,100.5,68z"/>
</g>
</svg>
